# xmcd
#
# Track frame offsets: 
#        150
#        20629
#        36930
#        51680
#        65159
#        77239
#        90154
#        107272
#        122127
#        140919
#        156244
#        170037
#        193406
#        332969
#
# Disc length: 4440 seconds
#
# Revision: 0
# Processed by: cddbd v1.5.2PL0 Copyright (c) Steve Scherf et al.
# Submitted via: ExactAudioCopy v0.99pb3
#
DISCID=d611560e
DTITLE=Roberto Ribeiro - Duetos
DYEAR=1900
DGENRE=Samba
TTITLE0=Malandros maneiros
TTITLE1=Mel pra minha dor
TTITLE2=Coisa Louca | A razão dá-se a quem tem | O que se leva dessa v
TTITLE2=ida
TTITLE3=Artifício
TTITLE4=Malandro and 1
TTITLE5=Me engana que eu gosto
TTITLE6=Recomeçar
TTITLE7=Desesperar, jamais
TTITLE8=Quem te viu, quem te vê
TTITLE9=De uma noite de festa
TTITLE10=Coisa da antiga
TTITLE11=Cocorocó
TTITLE12=*Dados
TTITLE13=*Dados
EXTD=
EXTT0=
EXTT1=
EXTT2=
EXTT3=
EXTT4=
EXTT5=
EXTT6=
EXTT7=
EXTT8=
EXTT9=
EXTT10=
EXTT11=
EXTT12=
EXTT13=
PLAYORDER=
